<?xml version="1.0" encoding="UTF-8"?>
<svg xmlns="http://www.w3.org/2000/svg" xmlns:xlink="http://www.w3.org/1999/xlink" viewBox="0 0 96 96" width="96px" height="96px">
<g id="surface64567669">
<path style=" stroke:none;fill-rule:nonzero;fill:rgb(74.117649%,74.117649%,74.117649%);fill-opacity:1;" d="M 88 50 C 88 72.089844 70.089844 90 48 90 C 25.910156 90 8 72.089844 8 50 C 8 27.910156 25.910156 10 48 10 C 70.089844 10 88 27.910156 88 50 Z M 88 50 "/>
<path style=" stroke:none;fill-rule:nonzero;fill:rgb(92.54902%,93.725491%,94.509804%);fill-opacity:1;" d="M 88 48 C 88 70.089844 70.089844 88 48 88 C 25.910156 88 8 70.089844 8 48 C 8 25.910156 25.910156 8 48 8 C 70.089844 8 88 25.910156 88 48 Z M 88 48 "/>
<path style=" stroke:none;fill-rule:nonzero;fill:rgb(0%,0%,0%);fill-opacity:1;" d="M 34.0625 28.261719 L 34.101562 29.171875 C 34.710938 28.464844 35.53125 28.109375 36.566406 28.109375 C 37.730469 28.109375 38.523438 28.550781 38.945312 29.429688 C 39.222656 29.035156 39.582031 28.71875 40.027344 28.472656 C 40.46875 28.230469 40.996094 28.109375 41.601562 28.109375 C 43.425781 28.109375 44.355469 29.0625 44.382812 30.96875 L 44.382812 36.464844 L 42.960938 36.464844 L 42.960938 31.050781 C 42.960938 30.464844 42.824219 30.027344 42.554688 29.734375 C 42.28125 29.445312 41.824219 29.296875 41.183594 29.296875 C 40.65625 29.296875 40.21875 29.453125 39.867188 29.765625 C 39.519531 30.074219 39.316406 30.492188 39.261719 31.019531 L 39.261719 36.460938 L 37.832031 36.460938 L 37.832031 31.089844 C 37.832031 29.894531 37.238281 29.296875 36.054688 29.296875 C 35.121094 29.296875 34.484375 29.691406 34.140625 30.472656 L 34.140625 36.460938 L 32.71875 36.460938 L 32.71875 28.257812 L 34.0625 28.257812 Z M 53.414062 34.546875 L 53.414062 30.773438 C 53.394531 29.941406 53.09375 29.292969 52.515625 28.820312 C 51.941406 28.347656 51.140625 28.113281 50.121094 28.113281 C 49.476562 28.113281 48.886719 28.222656 48.351562 28.445312 C 47.8125 28.667969 47.386719 28.96875 47.074219 29.351562 C 46.761719 29.734375 46.605469 30.128906 46.605469 30.539062 L 48.125 30.539062 C 48.125 30.179688 48.308594 29.875 48.675781 29.621094 C 49.039062 29.371094 49.492188 29.242188 50.03125 29.242188 C 50.648438 29.242188 51.113281 29.390625 51.429688 29.679688 C 51.746094 29.972656 51.902344 30.363281 51.902344 30.851562 L 51.902344 31.496094 L 50.433594 31.496094 C 49.164062 31.496094 48.179688 31.730469 47.476562 32.203125 C 46.777344 32.675781 46.429688 33.339844 46.429688 34.195312 C 46.429688 34.898438 46.707031 35.476562 47.265625 35.933594 C 47.824219 36.390625 48.539062 36.621094 49.410156 36.621094 C 50.386719 36.621094 51.226562 36.28125 51.929688 35.605469 C 51.980469 36.019531 52.054688 36.304688 52.140625 36.46875 L 53.726562 36.46875 L 53.726562 36.347656 C 53.519531 35.898438 53.414062 35.300781 53.414062 34.546875 Z M 51.902344 34.171875 C 51.710938 34.535156 51.402344 34.828125 50.976562 35.054688 C 50.550781 35.285156 50.101562 35.394531 49.628906 35.394531 C 49.132812 35.394531 48.726562 35.273438 48.410156 35.023438 C 48.09375 34.777344 47.9375 34.433594 47.9375 33.992188 C 47.9375 32.984375 48.863281 32.484375 50.714844 32.484375 L 51.902344 32.484375 Z M 59.148438 35.472656 C 59.671875 35.472656 60.125 35.320312 60.515625 35.015625 C 60.90625 34.714844 61.121094 34.332031 61.164062 33.878906 L 62.546875 33.878906 C 62.519531 34.351562 62.351562 34.796875 62.039062 35.222656 C 61.730469 35.648438 61.316406 35.984375 60.796875 36.238281 C 60.277344 36.492188 59.726562 36.617188 59.148438 36.617188 C 57.984375 36.617188 57.058594 36.242188 56.367188 35.496094 C 55.679688 34.753906 55.335938 33.734375 55.335938 32.441406 L 55.335938 32.203125 C 55.335938 31.40625 55.488281 30.695312 55.792969 30.074219 C 56.101562 29.453125 56.539062 28.96875 57.109375 28.625 C 57.683594 28.28125 58.359375 28.109375 59.136719 28.109375 C 60.097656 28.109375 60.894531 28.386719 61.527344 28.9375 C 62.160156 29.484375 62.503906 30.203125 62.542969 31.082031 L 61.160156 31.082031 C 61.121094 30.550781 60.910156 30.117188 60.535156 29.773438 C 60.15625 29.433594 59.691406 29.261719 59.140625 29.261719 C 58.398438 29.261719 57.820312 29.519531 57.414062 30.03125 C 57.007812 30.546875 56.800781 31.289062 56.800781 32.261719 L 56.800781 32.523438 C 56.800781 33.46875 57.003906 34.195312 57.410156 34.707031 C 57.8125 35.21875 58.394531 35.472656 59.148438 35.472656 Z M 48.210938 55.789062 C 48.210938 58.292969 47.726562 60.480469 46.753906 62.351562 C 45.777344 64.21875 44.398438 65.640625 42.617188 66.628906 C 40.828125 67.613281 38.75 68.105469 36.371094 68.105469 C 34.046875 68.105469 31.984375 67.609375 30.183594 66.621094 C 28.386719 65.628906 26.988281 64.21875 25.996094 62.386719 C 25.003906 60.550781 24.492188 58.429688 24.46875 56.015625 L 24.46875 54.171875 C 24.46875 51.710938 24.960938 49.539062 25.945312 47.652344 C 26.933594 45.765625 28.328125 44.320312 30.132812 43.320312 C 31.9375 42.320312 34.003906 41.820312 36.328125 41.820312 C 38.695312 41.820312 40.78125 42.316406 42.582031 43.304688 C 44.390625 44.296875 45.777344 45.730469 46.753906 47.609375 C 47.726562 49.488281 48.210938 51.679688 48.210938 54.171875 Z M 44.476562 54.15625 C 44.476562 51.125 43.636719 49.03125 42.230469 47.40625 C 40.824219 45.785156 38.855469 44.972656 36.328125 44.972656 C 33.867188 44.972656 31.929688 45.785156 30.519531 47.40625 C 29.105469 49.03125 28.242188 51.199219 28.203125 54.078125 L 28.203125 55.957031 C 28.203125 58.898438 29.050781 60.726562 30.480469 62.40625 C 31.902344 64.085938 33.867188 64.929688 36.371094 64.929688 C 38.886719 64.929688 40.828125 64.132812 42.210938 62.546875 C 43.589844 60.960938 44.4375 59.019531 44.476562 56.054688 Z M 61.074219 52.992188 C 58.839844 52.390625 55.234375 52.035156 55.234375 48.730469 C 55.234375 47.429688 56.414062 44.894531 60.582031 44.894531 C 65.191406 44.894531 66.121094 47.792969 66.210938 49.132812 L 69.785156 49.132812 C 69.710938 47.882812 69.601562 46.71875 68.890625 45.648438 C 68.097656 44.457031 66.972656 43.519531 65.527344 42.839844 C 64.078125 42.160156 62.433594 41.820312 60.582031 41.820312 C 54.59375 41.820312 51.59375 45.320312 51.59375 48.8125 C 51.59375 50.59375 52.121094 52.515625 53.507812 53.726562 C 54.890625 54.9375 57.027344 55.558594 60.160156 56.351562 C 62.667969 56.980469 66.570312 57.621094 66.570312 61.289062 C 66.570312 62.539062 64.644531 65.054688 60.769531 65.054688 C 56.03125 65.054688 54.585938 62.058594 54.5 60.683594 L 50.925781 60.683594 C 50.988281 62.03125 51.785156 68.105469 60.769531 68.105469 C 68.539062 68.105469 70.265625 62.949219 70.265625 60.875 C 70.265625 54.109375 63.308594 53.589844 61.074219 52.992188 Z M 61.074219 52.992188 "/>
</g>
</svg>
