<svg xmlns="http://www.w3.org/2000/svg" viewBox="0 0 424.49 58.18"><title>Pure Xbox Landscape Logo (Negative)</title><g id="Layer_2" data-name="Layer 2"><g id="Layer_1-2" data-name="Layer 1"><g id="Group_543" data-name="Group 543"><path id="Path_693" data-name="Path 693" d="M237.58,27.33,218.24.62h11l13.62,19.19L256.46.62h10.8L247.92,27.25l21.54,30.07H258.65L242.76,34.84l-15.9,22.48H216.05Z" style="fill:#fff"/><path id="Path_694" data-name="Path 694" d="M273.4.63h18C310.2.63,315.69,6,315.69,15.27c0,7.52-3.37,11.74-10.5,13.08,8.3,1.09,12.37,5.09,12.37,13.39,0,9.55-6.26,15.58-25.29,15.58H273.4ZM291.48,24.9c10.26,0,14.64-2.35,14.64-8.61,0-5.95-3.44-7.75-14.87-7.75h-8.84V24.9Zm.71,24.59c11.35,0,15.81-2.58,15.81-8.62,0-6.65-3.83-8.77-15.67-8.77H282.4V49.49Z" style="fill:#fff"/><path id="Path_695" data-name="Path 695" d="M321.63,29.05c0-20.2,12.61-29,26.78-29,13.94,0,26.71,8.84,26.71,29.05,0,20.6-12.69,29.13-26.86,29.13S321.63,49.64,321.63,29.05Zm44.4,0C366,16,359.14,8.22,348.41,8.22c-11,0-17.85,7.68-17.85,20.83,0,13.39,6.65,20.91,17.69,20.91S366,42.44,366,29.05Z" style="fill:#fff"/><path id="Path_696" data-name="Path 696" d="M392.61,27.33,373.27.62h11l13.62,19.19L411.49.62h10.8L403,27.25l21.54,30.07H413.68l-15.9-22.48L381.89,57.32H371.08Z" style="fill:#fff"/></g><path d="M29.06.63H13.72V32.26h-8L0,40.56H13.72V57.32H22.8V40.56h6.34c18.48,0,26.55-5.09,26.55-20S47.62.63,29.06.63Zm1.33,31.63h-7.6V8.69h7.6c10.73,0,16,2.51,16,11.75S41.12,32.26,30.39,32.26Z" style="fill:#61cc1b"/><path d="M100.55,30.85c0,13.47-4.54,18.95-14.49,18.95s-14.48-5.48-14.48-19V.63H62.49V30.85c0,18.64,8,27.25,23.57,27.25s23.57-8.69,23.57-27.25V.63h-9.08Z" style="fill:#61cc1b"/><path d="M161.52,19.34c0-13.62-8.38-18.71-26-18.71h-16.6V57.32h9.16v-19h7.28c1.41,0,2.82-.08,4.15-.16L152,57.32h10.49l-13.94-20.6C157.05,34.22,161.52,28.58,161.52,19.34ZM136.23,30.77H128V8.45h8.22c10.73,0,16.13,2.18,16.13,11.28S147,30.77,136.23,30.77Z" style="fill:#61cc1b"/><polygon points="211.54 32.5 216.88 24.66 178.27 24.66 178.27 8.85 207.56 8.85 207.56 0.63 169.19 0.63 169.19 57.32 207.56 57.32 207.56 49.1 178.27 49.1 178.27 32.5 211.54 32.5" style="fill:#61cc1b"/></g></g></svg>