<?xml version="1.0" encoding="utf-8"?>
<!-- Generator: Adobe Illustrator 26.4.1, SVG Export Plug-In . SVG Version: 6.00 Build 0)  -->
<svg version="1.1"
	 id="nintendo-life-logo" xmlns:svg="http://www.w3.org/2000/svg" xmlns:rdf="http://www.w3.org/1999/02/22-rdf-syntax-ns#" xmlns:inkscape="http://www.inkscape.org/namespaces/inkscape" xmlns:sodipodi="http://sodipodi.sourceforge.net/DTD/sodipodi-0.dtd" xmlns:cc="http://creativecommons.org/ns#" xmlns:dc="http://purl.org/dc/elements/1.1/" inkscape:version="0.91 r13725"
	 xmlns="http://www.w3.org/2000/svg" xmlns:xlink="http://www.w3.org/1999/xlink" x="0px" y="0px" viewBox="0 0 676.4 97.8"
	 style="enable-background:new 0 0 676.4 97.8;" xml:space="preserve">
<sodipodi:namedview  bordercolor="#666666" borderopacity="1" fit-margin-bottom="1" fit-margin-left="1" fit-margin-right="1" fit-margin-top="1" gridtolerance="10" guidetolerance="10" id="namedview4225" inkscape:current-layer="g4231" inkscape:cx="417.49457" inkscape:cy="62.38367" inkscape:pageopacity="0" inkscape:pageshadow="2" inkscape:window-height="1137" inkscape:window-maximized="1" inkscape:window-width="1920" inkscape:window-x="-8" inkscape:window-y="-8" inkscape:zoom="1.1737706" objecttolerance="10" pagecolor="#ffffff" showgrid="false" units="mm">
	<sodipodi:guide  id="guide4154" orientation="0,1116.8988" position="-0.33339634,-108.63586"></sodipodi:guide>
	<sodipodi:guide  id="guide4156" orientation="-231.3,0" position="1116.5655,-108.63586"></sodipodi:guide>
	<sodipodi:guide  id="guide4158" orientation="0,-1116.8988" position="1116.5655,122.66414"></sodipodi:guide>
	<sodipodi:guide  id="guide4160" orientation="231.3,0" position="-21.455067,-56.290857"></sodipodi:guide>
</sodipodi:namedview>
<g id="g4231" transform="translate(-82.983407,-4.0350333)" inkscape:groupmode="layer" inkscape:label="nintendolife-logo-vector">
	<path id="nintendo" inkscape:connector-curvature="0" style="fill:#DFDFDF;" d="M158.1,51.2l-10.3,47.5c-6.5-0.7-14.1-0.8-21-0.2
		c-0.8-0.6-1.8-1.4-1.6-1.9c0.1-0.3,7.7-33,9.1-43.3c0.5-4.2,0.7-7.8-4-8c-7-0.1-11.6,0.4-11.6,0.4c-5,18-8.3,35.3-11.2,53.1
		c-6.6-0.7-13.7-0.7-20.6,0l-2-1.9C87.2,86,97,39.2,97,39.2c1.7-7.3,9.5-13.4,17-13.4l27,0.1C153.9,25.8,160.8,38.6,158.1,51.2
		 M192.7,23.3c0,0-16.1-0.1-20.8-0.1c-0.2,0-1.7-1.9-1.7-1.9c1.2-4.3,2.2-10,3-14.3c6.1,0,14.5-0.1,21-0.1c0.2,0,1.4,1.8,1.6,1.8
		C194.5,13,193.3,19.2,192.7,23.3 M189.9,26.9c0.1,0,1.5,1.9,1.6,1.9c-3,11.2-11.7,51.9-14.9,69.9c-7.1-0.6-13.3-0.6-20.8,0
		c0-0.2-1.6-1.8-1.5-2c4.6-18,12.9-58.9,14.7-69.9C175.7,27.3,182.8,27.5,189.9,26.9 M256.4,50L246,98.7c-6.5-0.7-14.1-0.7-21,0
		c0-0.2-1.7-1.9-1.7-2.1c4.2-15.7,7.6-33.3,9.4-44.4c0.6-4.2-0.6-6.9-5.3-7c-7-0.1-10.6,0.3-10.6,0.3c-4.7,18.1-8.2,35.3-11.1,53.1
		c-6.6-0.7-14.3-0.8-21.2-0.2c0,0-1.7-1.6-1.6-2c1.2-5.8,12.2-57.4,12.2-57.4c1.7-7.3,8.8-13.3,16.3-13.3h27
		C251.2,25.9,259.1,37.4,256.4,50 M301.9,47.3c-5.7-0.5-9.9-0.8-15.8-0.3c-1.2,5-6.1,23.3-5.6,27.4c0,1.1-0.6,3.9,3.2,4.3
		c3.9,0.4,6.1,0.1,9.6-0.1c0.2,0,1.3,2,1.5,2c-1.7,5.6-3,12.1-3.5,17.9h-17.9c-12.4,0-19.6-10.6-17-22.4l14.8-69.2
		c6.4,0.6,14.9,0.8,22,0.2c0.1,0,1.6,1.8,1.7,1.8c-0.8,3.2-1.2,4.7-4.5,18h13.9c0.3,0,1.4,2,1.4,2C304,34.5,302.5,41.4,301.9,47.3
		 M368.1,50.2l-4.5,21.3l-39.9,0.1c-0.1,4,2.1,6.2,6,6.9c3.2,1,17.4,1,28,0.1c0.3,0,1.5,1.9,1.8,1.9c-1.8,5.4-3,12.5-3.6,18h-30.7
		c-16.4,0-26.9-14.8-23.3-30.6l4.1-18.2c3-13.2,15.6-23.7,29.3-23.7h12.9C361.8,25.9,370.9,37.5,368.1,50.2 M344.6,49.3
		c0-3.3-2.7-3.9-6.7-3.9l-1.9,0.1c-4,0-6.6,2.6-8.1,6c-0.1,0.3-0.3,0.7-0.4,1.1c2.6,0.1,14.6,0.2,17,0
		C344.8,50.8,344.6,50.8,344.6,49.3 M436.5,49.5L426,98.6c-6.5-0.7-14.1-0.7-20.9,0c0.1-0.2-1.8-1.8-1.8-2
		c4.2-15.7,7.8-34.1,9.5-45.2c0.6-4.2-0.7-6.1-5.5-6.2c-7-0.1-10.5,0.3-10.5,0.3c-5,18-8.3,35.3-11.2,53.1
		c-6.6-0.7-14.2-0.8-21.1-0.1c0,0-1.7-1.5-1.6-1.7c1.1-5.3,12.2-57.6,12.2-57.6c1.7-7.3,8.8-13.3,16.3-13.3h27
		C431.3,25.9,439.3,37,436.5,49.5 M495.8,84.1c-1.4,7.5-8.4,14.4-15.6,14.4L460,98.6c-10.9,0-26.2-10.8-22.8-26.3l5.3-25.4
		c2.6-11.6,14.8-21,26.8-21c0,0,11,0.1,16.9,0.1c1.3-6.5,2.5-12.9,3.6-19c6.2,0.6,13.9,0.7,20.4,0.2c0.2,0,1.5,1.7,1.7,1.7
		L495.8,84.1z M471.4,45.2c-4,0.3-7.6,3.5-8.8,9.8c-1.3,6.4-2.4,9.3-3.2,15.3c-0.5,3,0.7,9.4,8.9,9.6c0.6,0,1.8,0.1,6-0.1
		c2.8-10.8,5.5-22.6,8-34.4C478.6,45.1,474.2,45,471.4,45.2 M572.1,46.9l-5.9,29.6c-2.5,11.5-14,21.9-26.1,21.9l-20,0.2
		c-11.9,0-20-10.6-17.5-22.1l6.3-29.7c2.5-11.5,14.1-21.3,27.3-20.8h18C566.7,25.8,574.2,36.2,572.1,46.9 M544.7,45.4
		c-1.7,0-4.5-0.1-6.2,0c-4.3,0.2-6.4,2.1-7.7,5.8c-1.2,3.3-4.6,18.9-4.8,22.2c-0.4,3.7,0.8,5.4,5,5.7c1.5,0.1,4.8,0,6.4-0.1
		c4.3-0.2,5.7-3.7,7-7.4c1.1-3.3,3.7-15.9,4.2-19.1C549.2,48.8,548.6,45.5,544.7,45.4"/>
	<path id="life" inkscape:connector-curvature="0" style="fill:#e60012;" d="M590,98.9c-9.1-0.6-14.3-0.6-22.8,0c0-0.1-1.7-1.8-1.7-1.9
		c8.4-30.6,13.7-58,21.1-89.8c7.3,0.6,14.7,0.6,22.8,0c0.1,0,1.6,2.1,1.7,2.1C602.9,41.1,596.6,68.1,590,98.9 M638.5,23.6h-23
		c0-0.1-1.6-1.8-1.5-2c1.3-4.4,2.6-10.1,3.3-14.4c7,0,15.6-0.1,22.9-0.1c0.1,0,1.6,2,1.7,2C640.5,13.4,639.2,19.4,638.5,23.6
		 M635.5,27.1c0.2,0,1.5,1.9,1.7,1.9c-3.3,11.4-12.7,51.7-16.3,70.1c-8-0.6-14.3-0.7-22.9-0.1c0-0.2-1.8-1.9-1.7-2.1
		c5.4-18.6,14.3-58.6,16.2-70C620.3,27.5,627.5,27.6,635.5,27.1 M690,27.1c0,0-3.1-0.2-7.2-0.2c-6.1-0.1-10.9,0-12.8,3.6
		c-0.8,1.1-1.4,2-1.7,3.4c0,0,13.5,0,15.9,0c0.2,0,1.5,2.1,1.5,2.1c-2.5,6.6-3.4,12-4.1,17.9c-6.2-0.5-13.7-1-18.1-0.1
		c-5,17.1-8.8,39.2-10.1,45.2c-7.5-0.7-15.5-0.8-23.3-0.1c0,0-1.8-1.7-1.8-1.8c0.9-3.6,15.8-67,15.8-67c3.2-12.9,16.4-23,31.8-23
		c0,0,14.2,0.1,16.4,0.1c0.2,0,1.7,2.2,1.7,2.2C691.6,15.7,690.8,20.4,690,27.1 M754.6,52.2L750,71.7l-43.8-0.1c0,4,2.3,6.6,5.7,6.9
		c2.9,1.1,19.9,1.4,31.8,0.3c0.1,0,1.6,2.1,1.8,2.1c-2,5.5-3.4,12.4-4.1,18h-33c-18.6,0-30.2-13.7-26.2-29.9l4.4-18.5
		c3.3-13.5,17.3-24.4,32.8-24.4h14.5C748.4,26,758.5,38.5,754.6,52.2 M729.2,50.6c0-3.4-1.5-4.9-6-4.9h-2.4c-4.5,0-7.3,1.6-9.4,4.8
		c-0.4,0.6-0.7,1.3-1.1,2.2c6.9,0.1,18.3,0,18.7,0C729.4,50.8,729.2,52.1,729.2,50.6"/>
</g>
</svg>
